<svg width="32" height="32" viewBox="0 0 32 32" fill="none" xmlns="http://www.w3.org/2000/svg">
<path d="M6.16667 9H12.497C12.7007 9.00014 12.9009 9.05364 13.0775 9.15516C13.2542 9.25668 13.4011 9.4027 13.5038 9.57867L14.7452 11.7055C14.9837 12.1145 15.3027 12.4709 15.6829 12.753C16.0631 13.0352 16.4966 13.2372 16.9572 13.347L22.4137 14.6467C23.4347 14.8896 24.344 15.4697 24.9948 16.2932C25.6455 17.1167 25.9996 18.1354 26 19.185V21.8333C26 22.1428 25.8771 22.4395 25.6583 22.6583C25.4395 22.8771 25.1428 23 24.8333 23H6.16667C5.85725 23 5.5605 22.8771 5.34171 22.6583C5.12292 22.4395 5 22.1428 5 21.8333V10.1667C5 9.85725 5.12292 9.5605 5.34171 9.34171C5.5605 9.12292 5.85725 9 6.16667 9Z" stroke="black" stroke-width="1.5" stroke-linecap="round" stroke-linejoin="round"/>
<path d="M18 17L19 15" stroke="#0F141E" stroke-width="1.5" stroke-linecap="round" stroke-linejoin="round"/>
<path d="M13 16L15 12" stroke="#0F141E" stroke-width="1.5" stroke-linecap="round" stroke-linejoin="round"/>
</svg>
