<svg width="32" height="32" viewBox="0 0 32 32" fill="none" xmlns="http://www.w3.org/2000/svg">
<path d="M4 21.7083C4 22.2609 4.21949 22.7908 4.61019 23.1815C5.00089 23.5722 5.5308 23.7917 6.08333 23.7917C6.63587 23.7917 7.16577 23.5722 7.55647 23.1815C7.94717 22.7908 8.16667 22.2609 8.16667 21.7083C8.16667 21.1558 7.94717 20.6259 7.55647 20.2352C7.16577 19.8445 6.63587 19.625 6.08333 19.625C5.5308 19.625 5.00089 19.8445 4.61019 20.2352C4.21949 20.6259 4 21.1558 4 21.7083Z" stroke="#0F141E" stroke-width="1.5" stroke-linecap="round" stroke-linejoin="round"/>
<path d="M11 21.7083C11 22.2609 11.2195 22.7908 11.6102 23.1815C12.0009 23.5722 12.5308 23.7917 13.0833 23.7917C13.6359 23.7917 14.1658 23.5722 14.5565 23.1815C14.9472 22.7908 15.1667 22.2609 15.1667 21.7083C15.1667 21.1558 14.9472 20.6259 14.5565 20.2352C14.1658 19.8445 13.6359 19.625 13.0833 19.625C12.5308 19.625 12.0009 19.8445 11.6102 20.2352C11.2195 20.6259 11 21.1558 11 21.7083Z" stroke="#0F141E" stroke-width="1.5" stroke-linecap="round" stroke-linejoin="round"/>
<path d="M23.668 21.7083C23.668 22.2609 23.8875 22.7908 24.2782 23.1815C24.6689 23.5722 25.1988 23.7917 25.7513 23.7917C26.3038 23.7917 26.8337 23.5722 27.2244 23.1815C27.6151 22.7908 27.8346 22.2609 27.8346 21.7083C27.8346 21.1558 27.6151 20.6259 27.2244 20.2352C26.8337 19.8445 26.3038 19.625 25.7513 19.625C25.1988 19.625 24.6689 19.8445 24.2782 20.2352C23.8875 20.6259 23.668 21.1558 23.668 21.7083Z" stroke="#0F141E" stroke-width="1.5" stroke-linecap="round" stroke-linejoin="round"/>
<path d="M4 21.7109H1.91797V10.2526C1.91797 9.97634 2.02772 9.71139 2.22307 9.51603C2.41842 9.32068 2.68337 9.21094 2.95964 9.21094L24.7084 9.21094C26.0897 9.21094 27.4144 9.97916 28.3912 11.3466C29.3679 12.7141 29.9167 14.5687 29.9167 16.5026V21.7109H27.8333M23.6667 21.7109H15.3332M10.5 21.7109H8.5" stroke="#0F141E" stroke-width="1.5" stroke-linecap="round" stroke-linejoin="round"/>
<path d="M23.668 9.21094L25.2305 16.5026H29.918" stroke="#0F141E" stroke-width="1.5" stroke-linecap="round" stroke-linejoin="round"/>
<path d="M2 14.4141H24" stroke="#0F141E" stroke-width="1.5" stroke-linecap="round" stroke-linejoin="round"/>
<path d="M13.5 9.21094V14.3109" stroke="#0F141E" stroke-width="1.5" stroke-linecap="round" stroke-linejoin="round"/>
<path d="M19.5 9.21094V14.4193" stroke="#0F141E" stroke-width="1.5" stroke-linecap="round" stroke-linejoin="round"/>
<path d="M8 9.21094V14.4193" stroke="#0F141E" stroke-width="1.5" stroke-linecap="round" stroke-linejoin="round"/>
</svg>
