<svg width="300" height="113" viewBox="0 0 300 113" fill="none" xmlns="http://www.w3.org/2000/svg">
<g clip-path="url(#clip0_85_2884)">
<path d="M63.5123 7.25691C62.8323 10.525 60.3843 14.6782 57.1203 18.559C53.9243 22.1675 50.0483 25.5718 46.2402 27.6824C45.1522 28.2271 44.2002 26.7292 45.1522 25.9122C45.8322 25.4356 46.9202 24.0058 47.5322 25.1633C50.4563 23.1207 53.3803 20.3973 55.8963 17.5378C59.0243 13.8612 61.3363 10.0484 61.9483 6.98457C62.4923 3.85265 60.8603 2.21861 57.8683 1.8101C57.1883 1.74201 56.5083 1.74201 55.7603 1.74201C31.3481 2.28669 7.75201 31.4271 2.51598 54.3037C0.611968 62.2016 0.475968 73.2314 10.812 73.9803C16.3881 74.3207 23.5961 71.5292 30.6001 67.5803C41.2762 61.725 51.4083 53.3505 54.6043 50.0144C55.5563 48.925 56.6443 50.0144 55.8963 50.8314C52.9043 54.0995 42.3642 62.8144 31.2801 68.942C24.0721 72.959 16.5241 75.8186 10.54 75.4782C-0.884041 74.6612 -1.08804 62.8824 0.883969 54.0314C6.46 30.4739 30.6001 0.788821 55.9643 0.244141C56.7803 0.244141 57.5963 0.244141 58.2763 0.312226C62.2203 0.856907 64.3963 3.23989 63.5803 7.25691H63.5123Z" fill="#FC6536"/>
<path d="M82.4149 51.5798C80.0349 54.3712 76.9749 57.1627 73.9149 59.0691C70.7869 61.1117 67.6589 62.4734 65.4148 62.4734C64.7348 62.4734 64.1908 62.4053 63.7828 62.1329C62.8308 61.6563 62.4228 60.6351 62.4228 59.4095C62.4228 58.3202 62.6948 57.0266 63.2388 55.6649C63.3748 54.984 63.7148 54.3712 64.0548 53.6904C64.3268 53.2819 64.0548 53.35 63.7828 53.6223C59.9748 57.2308 54.9428 61.3159 51.5428 62.0649C50.3187 62.3372 49.5027 61.9968 49.0267 61.3159C48.6187 60.7712 48.6187 59.818 48.8907 58.8649C49.0267 57.9117 49.5707 56.8223 50.1147 55.7329C52.2228 51.9202 56.6428 47.4946 60.9948 47.2904C61.9468 47.2223 62.8988 47.4266 63.7148 47.767C64.3948 48.1074 64.9388 48.5159 65.3468 49.0606C65.7548 49.6053 64.5988 50.4223 64.1908 49.8776C63.9188 49.5372 63.5108 49.1968 63.0348 48.9925C62.4908 48.7202 61.7428 48.584 60.9268 48.584C57.2548 48.7202 53.2428 52.7372 51.2708 56.2776C50.7948 57.2308 50.3867 58.2521 50.1827 59.001C50.0467 59.75 50.0467 60.2266 50.1827 60.567C50.3187 60.7032 50.7268 60.8393 51.3388 60.7032C55.7588 59.8181 63.5108 52.1244 66.8428 48.8563L67.7949 47.9712C68.5429 47.2223 69.4269 48.1074 68.9509 48.7883C67.3869 50.5585 65.4148 53.2819 64.4628 56.0734C64.0548 57.2989 63.7148 58.4564 63.7148 59.3415C63.7828 60.0904 63.9868 60.6351 64.5308 60.9074C64.8028 61.0436 65.0748 61.1798 65.4828 61.1798C67.4549 61.1798 70.3109 59.8861 73.2349 57.9117C76.0909 56.0053 79.0829 53.35 81.3949 50.6946C82.2789 49.7415 83.2989 50.5585 82.3469 51.5117L82.4149 51.5798Z" fill="#FC6536"/>
<path d="M112.133 51.5817C109.209 54.4413 104.313 58.4583 98.6689 63.0881L93.7049 67.1732C90.1689 74.9349 86.2928 82.22 85.8848 82.9009C81.8048 90.3902 77.3168 97.6754 73.1688 102.714C71.0607 105.165 69.0887 107.207 67.1847 108.365C65.0087 109.863 62.0167 110.543 60.1127 108.297C59.1607 107.207 58.8887 105.846 58.8887 104.484C59.1607 95.0881 77.2488 79.1562 92.6849 66.3562C93.8409 63.769 94.9969 61.1137 95.9489 58.6626C97.0369 55.8711 97.8529 53.3519 98.1249 51.4456C98.3969 49.8796 98.2609 48.8583 97.7169 48.6541C97.6489 48.586 97.5809 48.586 97.4449 48.586C96.5609 48.6541 94.0449 51.3094 92.9569 52.3988C92.8209 52.4668 92.6849 52.5349 92.6169 52.7392C90.6449 54.6456 88.2649 56.9605 85.9528 59.003C83.5048 61.1137 81.0568 62.7477 79.1528 63.1562C77.9288 63.4285 77.1128 63.1562 76.6368 62.4754C76.2288 61.7945 76.1608 60.8413 76.2968 59.7519C76.4328 58.7988 76.8408 57.5732 77.4528 56.3477C79.5608 51.9902 84.1168 46.9519 88.6049 46.8158C89.5569 46.7477 90.5769 46.9519 91.3929 47.2924C92.0729 47.6328 92.5489 48.0413 93.0249 48.5179C93.5689 49.1988 92.6169 50.0839 91.9369 49.3349C91.5969 48.9945 91.2569 48.7902 90.7809 48.5179C90.1009 48.2456 89.4209 48.1094 88.6049 48.1094C84.6608 48.2456 80.5808 52.9434 78.6768 56.8924C78.1328 58.0498 77.7928 59.0711 77.5888 60.0243C77.5208 60.7732 77.5208 61.3179 77.7248 61.6583C77.8608 61.9307 78.2008 61.9988 78.8808 61.7945C80.5128 61.4541 82.6888 59.8881 85.0008 57.9817C87.3808 55.9392 89.7609 53.5562 91.5969 51.7179L91.9369 51.3775C93.1609 50.152 95.9489 47.2924 97.3089 47.2243C97.6489 47.2243 97.8529 47.2243 98.1249 47.2924C99.4169 47.769 99.6889 49.3349 99.3489 51.6498C99.0089 53.6243 98.1929 56.2115 97.0369 59.0711L94.9289 64.3136L97.7169 61.9988C103.361 57.369 108.189 53.3519 111.045 50.5605C111.929 49.6754 112.745 50.8328 112.133 51.4456V51.5817ZM91.3249 69.2158C76.6368 81.5392 60.3847 96.1094 60.1807 104.484C60.1807 105.573 60.3167 106.663 61.0647 107.48C62.5607 109.182 65.0087 108.297 66.5047 107.207C68.2047 106.05 70.1087 104.212 72.0808 101.829C76.1608 96.8583 80.6488 89.6413 84.6608 82.2881C85.0688 81.5392 88.1969 75.7519 91.3249 69.1477V69.2158Z" fill="#FC6536"/>
<path d="M139.468 51.5798C137.088 54.3712 134.028 57.1627 130.968 59.0691C127.84 61.1117 124.712 62.4734 122.468 62.4734C121.788 62.4734 121.244 62.4053 120.836 62.1329C119.884 61.6563 119.476 60.6351 119.476 59.4095C119.476 58.3202 119.748 57.0266 120.292 55.6649C120.428 54.984 120.768 54.3712 121.108 53.6904C121.38 53.2819 121.108 53.35 120.836 53.6223C117.028 57.2308 111.996 61.3159 108.595 62.0649C107.371 62.3372 106.555 61.9968 106.079 61.3159C105.671 60.7712 105.671 59.818 105.943 58.8649C106.079 57.9117 106.623 56.8223 107.167 55.7329C109.275 51.9202 113.696 47.4946 118.048 47.2904C119 47.2223 119.952 47.4266 120.768 47.767C121.448 48.1074 121.992 48.5159 122.4 49.0606C122.808 49.6053 121.652 50.4223 121.244 49.8776C120.972 49.5372 120.564 49.1968 120.088 48.9925C119.544 48.7202 118.796 48.584 117.98 48.584C114.308 48.7202 110.296 52.7372 108.323 56.2776C107.847 57.2308 107.439 58.2521 107.235 59.001C107.031 59.75 107.099 60.2266 107.235 60.567C107.371 60.7032 107.779 60.8393 108.391 60.7032C112.812 59.8181 120.564 52.1244 123.896 48.8563L124.848 47.9712C125.596 47.2223 126.48 48.1074 126.004 48.7883C124.44 50.5585 122.468 53.2819 121.516 56.0734C121.108 57.2989 120.768 58.4564 120.768 59.3415C120.836 60.0904 121.04 60.6351 121.584 60.9074C121.856 61.0436 122.128 61.1798 122.536 61.1798C124.508 61.1798 127.364 59.8861 130.288 57.9117C133.144 56.0053 136.136 53.35 138.448 50.6946C139.332 49.7415 140.352 50.5585 139.4 51.5117L139.468 51.5798Z" fill="#FC6536"/>
<path d="M170.478 13.7254C169.73 15.4275 168.37 17.5381 166.534 20.1254C159.87 29.453 147.222 43.1381 140.218 50.3552L140.082 50.4913C138.858 53.2147 137.974 55.4616 137.226 57.7084C136.274 60.636 135.866 63.019 136.274 64.5169C136.546 65.402 137.022 65.8786 137.906 65.8786C142.53 66.0147 152.254 56.0743 157.558 50.6956C158.102 50.1509 159.19 50.9679 158.51 51.5807C153.07 57.1637 143.074 67.3084 137.906 67.2403C136.274 67.1722 135.322 66.2871 134.982 64.7892C134.574 63.0871 134.982 60.4318 135.934 57.2999C137.022 54.1679 138.518 50.4913 140.49 46.6105C148.786 30.0658 163.678 9.16368 169.39 9.5041C169.798 9.5041 170.138 9.57219 170.342 9.77645C171.43 10.4573 171.43 11.819 170.478 13.7935V13.7254ZM169.662 10.8658C169.662 10.8658 169.39 10.7977 169.254 10.7977C164.358 10.4573 150.146 30.4743 141.918 46.5424C149.126 39.053 159.598 27.4105 165.514 19.2403C167.214 16.8573 168.506 14.7467 169.254 13.1807C169.798 11.8871 170.002 11.0701 169.662 10.7977V10.8658Z" fill="#FC6536"/>
<path d="M172.042 51.7848C169.118 54.9848 163.338 59.6827 156.606 65.3337C155.45 66.2188 154.294 67.2401 153.206 68.1933C150.078 75.955 145.998 84.6018 141.645 92.2273C135.457 102.985 128.521 111.564 122.469 112.244C121.925 112.312 121.245 112.312 120.769 112.244C119.817 112.108 119.001 111.7 118.321 111.019C117.777 110.27 117.369 109.385 117.165 108.227C117.097 107.41 117.165 106.525 117.301 105.436C118.933 95.6316 136.953 80.0401 152.05 67.3763C155.042 59.8869 157.082 53.2827 157.626 49.7422C157.762 48.9933 159.122 49.1976 158.986 49.8784C158.51 53.0784 156.81 58.8656 154.158 65.538L155.722 64.2444C162.522 58.6614 168.166 53.8954 171.158 50.7635C171.634 50.2188 172.722 51.1039 172.042 51.7167V51.7848ZM151.03 70.0997C136.545 82.2869 120.225 96.789 118.661 105.708C118.525 106.593 118.525 107.41 118.593 108.091C118.661 108.976 118.933 109.657 119.409 110.066C119.817 110.542 120.293 110.815 120.973 110.883C121.449 110.951 121.857 110.951 122.469 110.951C127.909 110.27 134.505 102.032 140.557 91.6146C144.502 84.8061 148.174 77.1805 151.098 70.1678L151.03 70.0997ZM158.374 45.4529C158.442 45.0444 158.51 44.5678 158.714 43.955C158.782 43.4103 158.85 42.7295 158.986 42.321C159.054 41.572 160.21 41.8444 160.142 42.4571C160.074 42.9337 160.006 43.5465 159.87 44.1593C159.734 44.7039 159.598 45.3167 159.53 45.7252C159.394 46.4061 158.238 46.2018 158.374 45.3848V45.4529Z" fill="#FC6536"/>
<path d="M246.502 32.721C245.754 33.6062 244.326 32.5849 245.21 31.8359C246.026 31.087 246.026 30.3381 245.618 29.9296C244.666 28.9764 241.946 28.3636 240.722 28.0232C234.942 26.7976 226.646 26.321 217.738 26.3891C212.366 32.0402 206.586 37.5551 203.662 39.9381C203.594 40.2104 203.39 40.4147 203.254 40.687C201.622 43.2062 200.126 45.7253 198.63 48.3806C193.734 56.8232 189.11 65.2657 185.642 72.4827C181.698 80.3806 179.25 86.5083 179.522 88.6189C179.59 89.1636 179.93 89.0274 180.338 88.7551C181.018 88.2104 181.834 89.2317 181.154 89.7083C180.474 90.253 179.386 90.5934 178.638 89.9806C178.366 89.6402 178.23 89.2317 178.23 88.7551C177.958 86.304 180.406 79.904 184.418 71.8019C187.818 64.7891 192.51 56.2104 197.406 47.7679C198.97 45.1806 200.534 42.5253 202.166 40.0062C205.09 35.1721 208.15 30.6104 211.006 26.5253C197.814 27.07 184.35 28.6359 176.258 30.8827C175.306 31.1551 174.762 29.7934 176.326 29.3849C184.622 27.2062 198.494 25.6402 211.89 25.1636C214.406 21.6232 216.786 18.4913 218.962 15.904C221.274 13.1125 223.382 11.07 225.15 9.91254C228.822 7.39339 231.338 8.82318 228.754 13.1806C227.802 14.8147 226.17 16.8572 224.266 19.1721C222.702 21.0785 220.934 22.9849 219.098 24.9593C227.598 24.9593 235.418 25.4359 241.062 26.6615C242.694 27.07 245.414 27.6147 246.638 28.8402C247.522 29.7253 247.93 30.9508 246.638 32.5849L246.502 32.721ZM215.834 26.4572C214.882 26.4572 213.794 26.5253 212.842 26.5253H212.502C210.462 29.453 208.354 32.653 206.11 35.9891C208.898 33.47 212.366 29.9976 215.834 26.4572ZM223.11 18.4232C225.014 16.1083 226.51 14.2019 227.53 12.5679C228.89 10.253 229.026 8.89126 225.898 10.9338C224.266 12.0913 222.226 14.1338 219.914 16.7891C217.874 19.1721 215.766 21.9636 213.454 25.0955C214.678 25.0955 215.902 25.0955 217.126 25.0274C219.234 22.8487 221.274 20.5338 223.11 18.4232Z" fill="#FC6536"/>
<path d="M228.278 51.4442C226.17 52.9421 222.974 53.8272 219.846 53.8272C218.69 53.8953 217.466 53.7591 216.31 53.4187C216.038 54.5081 215.562 55.5293 214.95 56.6187C213.318 59.3421 209.578 62.8144 206.246 62.3379C205.022 62.2017 204.206 61.4527 203.866 60.4315C203.118 58.5251 204.206 55.9379 205.158 54.2357C206.518 51.9208 208.694 49.674 211.21 48.2442V47.9038C211.21 47.9038 211.55 47.3591 211.754 47.0868C212.026 46.9506 212.298 46.8145 212.706 46.8145C213.046 46.8145 213.522 46.9506 213.93 47.223C214.338 47.1549 214.746 47.0868 215.154 47.0868C216.242 47.0868 217.126 47.3591 217.874 47.7676C218.418 48.1762 218.962 48.6528 219.166 49.3336C219.506 50.0825 218.214 50.6272 217.806 49.6059C217.738 49.3336 217.466 49.1293 217.126 48.9251C216.65 48.6528 216.038 48.4485 215.358 48.4485C216.242 49.6059 216.582 50.8315 216.514 52.057C217.602 52.3974 218.69 52.5336 219.846 52.5336C222.702 52.5336 225.558 51.6485 227.53 50.3549C228.346 49.9464 229.094 51.0357 228.278 51.5123V51.4442ZM215.154 52.9421C213.862 52.4655 212.774 51.6485 211.958 50.491C211.958 50.423 211.89 50.3549 211.822 50.2187L211.482 49.674C209.374 50.8996 207.538 52.9421 206.314 54.9847C205.566 56.2102 204.614 58.5932 205.09 60.023C205.226 60.4996 205.77 60.84 206.45 60.9762C209.17 61.3166 212.502 58.0485 213.794 55.8017C214.474 54.9166 214.882 53.8272 215.086 52.874L215.154 52.9421ZM215.222 51.5804C215.154 50.6953 214.814 49.9464 214.27 49.1974L213.794 48.7208C213.794 48.7208 213.046 48.9932 212.706 49.1293L212.978 49.5379C212.978 49.5379 213.046 49.674 213.114 49.674C213.59 50.491 214.338 51.0357 215.222 51.5804Z" fill="#FC6536"/>
<path d="M278.733 51.1705C277.101 52.2598 275.605 52.9407 274.244 53.4854C272.68 54.03 271.252 54.3705 270.096 54.3024C266.764 54.2343 266.084 52.1237 265.608 50.4896C265.54 50.0811 265.336 49.6726 265.268 49.4002C264.996 48.9237 264.588 48.7194 263.364 49.4002C261.732 50.2173 259.964 51.579 258.196 53.213C255.68 55.596 253.3 58.3875 252.008 60.0896C251.464 60.7705 249.56 63.4258 248.608 63.2896C247.044 63.1534 248.064 61.179 248.54 60.2939C249.696 58.1832 251.124 55.9364 252.62 53.7577C248.064 58.3194 242.148 63.2896 239.156 62.6768C236.708 62.1322 236.232 60.1577 236.776 57.6385C236.912 56.8215 237.252 56.0045 237.592 55.1194C238 54.2343 237.66 54.4385 237.184 55.0513C236.028 56.2768 234.804 57.5705 233.58 58.6598C231.2 60.8385 228.82 62.4045 227.12 62.4726C223.924 62.4726 223.856 59.9534 225.012 56.6854C225.896 54.1662 227.324 51.5109 228.548 49.3322C229.024 48.5151 230.18 49.196 229.772 50.013C228.548 52.1237 227.188 54.6428 226.236 57.0939C225.488 59.4088 225.42 61.179 227.12 61.1109C228.412 61.1109 230.452 59.613 232.696 57.7066C235.62 54.9832 238.748 51.4428 240.38 49.1279C241.128 48.1747 242.352 48.9917 241.876 49.8088C240.584 52.1917 238.68 55.5279 238.136 58.0471C237.796 59.7492 238 61.0428 239.496 61.4513C243.576 62.3364 255.068 49.5364 257.516 46.4045L257.652 46.1322C258.128 45.3832 259.216 46.2002 258.808 46.8811H258.74C258.74 46.8811 258.672 47.1534 258.672 47.2215C257.72 48.5832 256.632 50.2173 255.476 51.9875C254.524 53.4854 253.164 55.3237 252.28 56.8215C251.736 57.7747 251.192 58.7279 251.396 58.7279C251.6 58.7279 252.212 57.979 252.96 57.0939C254.116 55.596 255.952 53.7577 257.38 52.4641C259.148 50.762 261.052 49.2641 262.752 48.379C264.928 47.2896 265.88 47.8343 266.424 49.0598C266.696 49.4002 266.764 49.8088 266.9 50.2854C267.308 51.5109 267.716 53.1449 270.096 53.213C271.184 53.213 272.408 52.9407 273.768 52.4641C275.06 51.9875 276.489 51.2385 277.985 50.2854C278.869 49.7407 279.549 50.9662 278.733 51.4428V51.1705Z" fill="#FC6536"/>
<path d="M296.006 51.989C291.518 55.5294 286.214 57.64 281.114 59.6145V61.3847C281.114 65.8102 279.346 70.7124 276.558 74.389C273.838 77.7932 270.37 80.2443 266.493 80.4485C263.637 80.5166 261.257 78.9507 260.645 76.0911C260.373 74.8656 260.373 73.5039 260.917 72.006C261.597 69.623 263.297 67.172 266.153 65.0613C269.826 62.4741 274.45 60.7039 279.278 58.8656L279.754 58.7294C279.482 56.1422 278.87 54.2358 278.122 51.7847C277.782 50.6954 277.442 49.6741 277.374 48.1762C277.238 46.5422 277.782 44.9081 279.006 43.6826C280.162 42.5251 281.59 41.9805 282.814 41.9805C284.99 41.9805 286.554 43.7507 284.514 46.8145C283.766 47.9039 282.542 48.9932 281.318 50.0145L279.278 51.3762C280.026 53.7592 280.774 55.5975 280.978 58.2528C285.874 56.3464 290.906 54.3039 295.122 51.0358C296.074 50.2188 296.89 51.3762 296.006 51.989ZM279.754 60.0911H279.686C274.858 61.9975 270.37 63.6996 266.901 66.2188C264.317 68.1251 262.753 70.3039 262.073 72.4145C261.733 73.64 261.665 74.7975 261.937 75.8188C262.481 77.9975 264.249 79.0868 266.493 79.0188C269.826 78.9507 273.022 76.7039 275.47 73.572C278.054 70.1677 279.822 65.5379 279.822 61.3847V60.0911H279.754ZM278.938 49.9464C279.414 49.606 280.026 49.2656 280.502 48.8571C281.658 47.972 282.678 46.9507 283.358 45.9294C284.582 44.2273 283.902 43.4103 282.678 43.4103C281.794 43.4103 280.638 43.8188 279.822 44.6358C278.938 45.5209 278.462 46.7464 278.598 48.04C278.666 48.7209 278.734 49.3337 278.938 49.9464Z" fill="#FC6536"/>
</g>
<defs>
<clipPath id="clip0_85_2884">
<rect width="300" height="112" fill="white" transform="translate(0 0.244141)"/>
</clipPath>
</defs>
</svg>
