<svg width="32" height="32" viewBox="0 0 32 32" fill="none" xmlns="http://www.w3.org/2000/svg">
<g clip-path="url(#clip0_189_7141)">
<path d="M6.66699 22.6667C6.66699 23.3739 6.94794 24.0522 7.44804 24.5523C7.94814 25.0524 8.62641 25.3333 9.33366 25.3333C10.0409 25.3333 10.7192 25.0524 11.2193 24.5523C11.7194 24.0522 12.0003 23.3739 12.0003 22.6667C12.0003 21.9594 11.7194 21.2811 11.2193 20.781C10.7192 20.281 10.0409 20 9.33366 20C8.62641 20 7.94814 20.281 7.44804 20.781C6.94794 21.2811 6.66699 21.9594 6.66699 22.6667Z" stroke="#0F141E" stroke-width="1.5" stroke-linecap="round" stroke-linejoin="round"/>
<path d="M20 22.6667C20 23.3739 20.281 24.0522 20.781 24.5523C21.2811 25.0524 21.9594 25.3333 22.6667 25.3333C23.3739 25.3333 24.0522 25.0524 24.5523 24.5523C25.0524 24.0522 25.3333 23.3739 25.3333 22.6667C25.3333 21.9594 25.0524 21.2811 24.5523 20.781C24.0522 20.281 23.3739 20 22.6667 20C21.9594 20 21.2811 20.281 20.781 20.781C20.281 21.2811 20 21.9594 20 22.6667Z" stroke="#0F141E" stroke-width="1.5" stroke-linecap="round" stroke-linejoin="round"/>
<path d="M6.66667 22.6667H4V14.6667M4 14.6667L6.66667 8H18.6667L24 14.6667M4 14.6667H24M24 14.6667H25.3333C26.0406 14.6667 26.7189 14.9476 27.219 15.4477C27.719 15.9478 28 16.6261 28 17.3333V22.6667H25.3333M20 22.6667H12M16 14.6667V8" stroke="#0F141E" stroke-width="1.5" stroke-linecap="round" stroke-linejoin="round"/>
</g>
<defs>
<clipPath id="clip0_189_7141">
<rect width="32" height="32" fill="white"/>
</clipPath>
</defs>
</svg>
