<svg width="48" height="48" viewBox="0 0 48 48" fill="none" xmlns="http://www.w3.org/2000/svg">
<g clip-path="url(#clip0_410_355)">
<path d="M10.0009 14.4009C10.0009 13.234 10.4645 12.1148 11.2897 11.2897C12.1148 10.4645 13.234 10.0009 14.4009 10.0009H16.4009C17.5627 10.0003 18.6771 9.54013 19.5009 8.72092L20.9009 7.32092C21.3098 6.90972 21.796 6.58341 22.3314 6.36074C22.8668 6.13807 23.441 6.02344 24.0209 6.02344C24.6008 6.02344 25.175 6.13807 25.7104 6.36074C26.2459 6.58341 26.732 6.90972 27.1409 7.32092L28.5409 8.72092C29.3649 9.54092 30.4809 10.0009 31.6409 10.0009H33.6409C34.8079 10.0009 35.927 10.4645 36.7522 11.2897C37.5774 12.1148 38.0409 13.234 38.0409 14.4009V16.4009C38.0409 17.5609 38.5009 18.6769 39.3209 19.5009L40.7209 20.9009C41.1321 21.3098 41.4584 21.796 41.6811 22.3314C41.9038 22.8668 42.0184 23.441 42.0184 24.0209C42.0184 24.6008 41.9038 25.175 41.6811 25.7104C41.4584 26.2459 41.1321 26.732 40.7209 27.1409L39.3209 28.5409C38.5017 29.3647 38.0416 30.4791 38.0409 31.6409V33.6409C38.0409 34.8079 37.5774 35.927 36.7522 36.7522C35.927 37.5774 34.8079 38.0409 33.6409 38.0409H31.6409C30.4791 38.0416 29.3647 38.5017 28.5409 39.3209L27.1409 40.7209C26.732 41.1321 26.2459 41.4584 25.7104 41.6811C25.175 41.9038 24.6008 42.0184 24.0209 42.0184C23.441 42.0184 22.8668 41.9038 22.3314 41.6811C21.796 41.4584 21.3098 41.1321 20.9009 40.7209L19.5009 39.3209C18.6771 38.5017 17.5627 38.0416 16.4009 38.0409H14.4009C13.234 38.0409 12.1148 37.5774 11.2897 36.7522C10.4645 35.927 10.0009 34.8079 10.0009 33.6409V31.6409C10.0003 30.4791 9.54013 29.3647 8.72092 28.5409L7.32092 27.1409C6.90972 26.732 6.58341 26.2459 6.36074 25.7104C6.13807 25.175 6.02344 24.6008 6.02344 24.0209C6.02344 23.441 6.13807 22.8668 6.36074 22.3314C6.58341 21.796 6.90972 21.3098 7.32092 20.9009L8.72092 19.5009C9.54013 18.6771 10.0003 17.5627 10.0009 16.4009V14.4009Z" stroke="white" stroke-width="2" stroke-linecap="round" stroke-linejoin="round"/>
<g clip-path="url(#clip1_410_355)">
<path d="M17 24L22 29L32 19" stroke="white" stroke-width="2" stroke-linecap="round" stroke-linejoin="round"/>
</g>
</g>
<defs>
<clipPath id="clip0_410_355">
<rect width="48" height="48" fill="white"/>
</clipPath>
<clipPath id="clip1_410_355">
<rect width="24" height="24" fill="white" transform="translate(12 12)"/>
</clipPath>
</defs>
</svg>
