<svg width="24" height="24" viewBox="0 0 24 24" fill="none" xmlns="http://www.w3.org/2000/svg">
<g clip-path="url(#clip0_89_3200)">
<path fill-rule="evenodd" clip-rule="evenodd" d="M15.5996 3.6001H7.59961C5.39047 3.6001 3.59961 5.39096 3.59961 7.6001V15.6001C3.59961 17.8092 5.39047 19.6001 7.59961 19.6001H15.5996C17.8087 19.6001 19.5996 17.8092 19.5996 15.6001V7.6001C19.5996 5.39096 17.8087 3.6001 15.5996 3.6001ZM12 10C10.8954 10 10 10.8954 10 12C10 13.1046 10.8954 14 12 14C13.1046 14 14 13.1046 14 12C14 10.8954 13.1046 10 12 10ZM8 12C8 9.79086 9.79086 8 12 8C14.2091 8 16 9.79086 16 12C16 14.2091 14.2091 16 12 16C9.79086 16 8 14.2091 8 12ZM17.5 7.5C17.5 6.94772 17.0523 6.5 16.5 6.5C15.9477 6.5 15.5 6.94772 15.5 7.5V7.501C15.5 8.05328 15.9477 8.501 16.5 8.501C17.0523 8.501 17.5 8.05328 17.5 7.501V7.5Z" fill="#F1F1F1"/>
</g>
<defs>
<clipPath id="clip0_89_3200">
<rect width="24" height="24" fill="white"/>
</clipPath>
</defs>
</svg>
