<svg width="16" height="16" viewBox="0 0 16 16" fill="none" xmlns="http://www.w3.org/2000/svg">
<path fill-rule="evenodd" clip-rule="evenodd" d="M11.1287 11.9369C9.9508 12.9317 8.42829 13.5314 6.76571 13.5314C3.02911 13.5314 0 10.5023 0 6.76571C0 3.02911 3.02911 0 6.76571 0C10.5023 0 13.5314 3.02911 13.5314 6.76571C13.5314 8.42829 12.9317 9.95081 11.9369 11.1287L15.8326 15.0245C16.0558 15.2477 16.0558 15.6095 15.8326 15.8326C15.6095 16.0558 15.2477 16.0558 15.0245 15.8326L11.1287 11.9369ZM1.14286 6.76571C1.14286 3.6603 3.6603 1.14286 6.76571 1.14286C9.87113 1.14286 12.3886 3.6603 12.3886 6.76571C12.3886 8.29493 11.7781 9.68156 10.7876 10.6952C10.7707 10.7087 10.7544 10.7232 10.7388 10.7388C10.7232 10.7544 10.7087 10.7707 10.6952 10.7876C9.68156 11.7781 8.29493 12.3886 6.76571 12.3886C3.6603 12.3886 1.14286 9.87113 1.14286 6.76571Z" fill="#F1F1F1"/>
</svg>
