<svg width="32" height="32" viewBox="0 0 32 32" fill="none" xmlns="http://www.w3.org/2000/svg">
<path d="M20.3322 6L15.8878 11.5556L11.4434 6" stroke="black" stroke-width="1.5" stroke-linecap="round" stroke-linejoin="round"/>
<path d="M15.8889 23.7778C15.8889 24.3671 15.6548 24.9324 15.238 25.3491C14.8213 25.7659 14.256 26 13.6667 26H9.22222C8.63285 26 8.06762 25.7659 7.65087 25.3491C7.23413 24.9324 7 24.3671 7 23.7778V14.6978C7.00013 14.1085 7.23433 13.5433 7.65111 13.1267L8.57111 12.2067C8.98789 11.79 9.2221 11.2249 9.22222 10.6356V8.22222C9.22222 7.63285 9.45635 7.06762 9.8731 6.65087C10.2898 6.23413 10.8551 6 11.4444 6H20.3333C20.9227 6 21.4879 6.23413 21.9047 6.65087C22.3214 7.06762 22.5556 7.63285 22.5556 8.22222V10.6356C22.5557 11.2249 22.7899 11.79 23.2067 12.2067L24.1267 13.1267C24.5434 13.5433 24.7777 14.1085 24.7778 14.6978V23.7778C24.7778 24.3671 24.5437 24.9324 24.1269 25.3491C23.7102 25.7659 23.1449 26 22.5556 26H18.1111C17.5217 26 16.9565 25.7659 16.5398 25.3491C16.123 24.9324 15.8889 24.3671 15.8889 23.7778Z" stroke="#0F141E" stroke-width="1.5" stroke-linecap="round" stroke-linejoin="round"/>
<path d="M24.7761 17.1074H21.4428C21.1481 17.1074 20.8655 17.2245 20.6571 17.4329C20.4487 17.6412 20.3317 17.9238 20.3317 18.2185V20.4408C20.3317 20.7354 20.4487 21.0181 20.6571 21.2264C20.8655 21.4348 21.1481 21.5519 21.4428 21.5519H24.7761" stroke="black" stroke-width="1.5" stroke-linecap="round" stroke-linejoin="round"/>
<path d="M7 21.5519H10.3333C10.628 21.5519 10.9106 21.4348 11.119 21.2264C11.3274 21.0181 11.4444 20.7354 11.4444 20.4408V18.2185C11.4444 17.9238 11.3274 17.6412 11.119 17.4329C10.9106 17.2245 10.628 17.1074 10.3333 17.1074H7" stroke="black" stroke-width="1.5" stroke-linecap="round" stroke-linejoin="round"/>
<path d="M15.8883 23.7789V11.5566" stroke="black" stroke-width="1.5" stroke-linecap="round" stroke-linejoin="round"/>
</svg>
