<svg width="150" height="32" viewBox="0 0 150 32" fill="none" xmlns="http://www.w3.org/2000/svg">
<path d="M2.98401 8.32682C4.97336 6.33748 7.37004 5.34281 10.1741 5.34281C12.1824 5.34281 13.9822 5.89224 15.5737 6.99112C17.1841 8.08999 18.4062 9.54885 19.2398 11.3677L15.1758 12.5329C14.6643 11.5856 13.9822 10.8277 13.1297 10.2593C12.2771 9.69094 11.2919 9.40675 10.1741 9.40675C8.48786 9.40675 7.07638 9.99408 5.93961 11.1687C4.82179 12.3434 4.26288 13.7928 4.26288 15.5169C4.26288 17.241 4.82179 18.6903 5.93961 19.865C7.07638 21.0207 8.48786 21.5986 10.1741 21.5986C12.4097 21.5986 14.0485 20.6039 15.0906 18.6146L19.2114 19.7229C18.3967 21.5228 17.1841 22.9627 15.5737 24.0426C13.9822 25.1226 12.1824 25.6625 10.1741 25.6625C7.37004 25.6625 4.97336 24.6773 2.98401 22.7069C0.994671 20.7176 0 18.3209 0 15.5169C0 12.7128 0.994671 10.3162 2.98401 8.32682ZM4.37655 0H8.4405L10.032 2.13144L11.6234 0H15.6874L12.9307 3.69449H7.1048L4.37655 0Z" fill="#0F141E"/>
<path d="M21.4434 12.3623C22.9022 10.8656 24.6548 10.1172 26.7009 10.1172C28.3114 10.1172 29.6944 10.6288 30.8501 11.6519V10.373H34.9709V25.4352H30.8501V24.1847C29.7134 25.1699 28.3303 25.6625 26.7009 25.6625C24.6737 25.6625 22.9212 24.8952 21.4434 23.3606C19.9845 21.8259 19.2551 20.0071 19.2551 17.9041C19.2551 15.7253 19.9845 13.878 21.4434 12.3623ZM23.0917 17.9041C23.0917 19.003 23.4706 19.9503 24.2285 20.746C25.0053 21.5417 25.962 21.9396 27.0988 21.9396C28.1977 21.9396 29.145 21.5417 29.9407 20.746C30.7365 19.9313 31.1343 18.984 31.1343 17.9041C31.1343 16.8242 30.7365 15.8769 29.9407 15.0622C29.145 14.2475 28.1977 13.8401 27.0988 13.8401C25.962 13.8401 25.0053 14.2475 24.2285 15.0622C23.4706 15.8579 23.0917 16.8052 23.0917 17.9041Z" fill="#0F141E"/>
<path d="M35.9536 17.7052C35.9536 15.5263 36.6546 13.717 38.0566 12.2771C39.4776 10.8372 41.2017 10.1172 43.2289 10.1172C43.2857 10.1172 43.3426 10.1172 43.3994 10.1172C45.0288 10.1362 46.4119 10.6572 47.5486 11.6803V10.373H51.6694V24.6679C51.6694 26.7709 50.9589 28.5139 49.538 29.897C48.136 31.299 46.3455 32 44.1667 32C42.3858 32 40.7943 31.4979 39.3923 30.4938C37.9903 29.4896 37.0619 28.0308 36.6072 26.1172H40.728C41.2775 27.4814 42.4048 28.1634 44.1099 28.1634C45.2088 28.1634 46.0519 27.8603 46.6392 27.254C47.2455 26.6477 47.5486 25.7857 47.5486 24.6679V23.9005C46.4308 24.8289 45.0477 25.2931 43.3994 25.2931C41.2396 25.2931 39.4586 24.5636 38.0566 23.1048C36.6546 21.6459 35.9536 19.8461 35.9536 17.7052ZM39.7902 17.7052C39.7902 18.7851 40.1881 19.704 40.9838 20.4618C41.7606 21.2386 42.6984 21.627 43.7973 21.627C44.8962 21.627 45.8435 21.2481 46.6392 20.4902C47.4349 19.7134 47.8328 18.7851 47.8328 17.7052C47.8328 16.6252 47.4349 15.7063 46.6392 14.9485C45.8624 14.1717 44.9151 13.7833 43.7973 13.7833C42.6984 13.7833 41.7511 14.1717 40.9554 14.9485C40.1786 15.7063 39.7902 16.6252 39.7902 17.7052Z" fill="#0F141E"/>
<path d="M54.7016 12.3623C56.1605 10.8656 57.913 10.1172 59.9591 10.1172C61.5696 10.1172 62.9526 10.6288 64.1083 11.6519V10.373H68.2291V25.4352H64.1083V24.1847C62.9716 25.1699 61.5885 25.6625 59.9591 25.6625C57.9319 25.6625 56.1794 24.8952 54.7016 23.3606C53.2427 21.8259 52.5133 20.0071 52.5133 17.9041C52.5133 15.7253 53.2427 13.878 54.7016 12.3623ZM56.3499 17.9041C56.3499 19.003 56.7288 19.9503 57.4867 20.746C58.2635 21.5417 59.2202 21.9396 60.357 21.9396C61.4559 21.9396 62.4032 21.5417 63.1989 20.746C63.9947 19.9313 64.3925 18.984 64.3925 17.9041C64.3925 16.8242 63.9947 15.8769 63.1989 15.0622C62.4032 14.2475 61.4559 13.8401 60.357 13.8401C59.2202 13.8401 58.2635 14.2475 57.4867 15.0622C56.7288 15.8579 56.3499 16.8052 56.3499 17.9041Z" fill="#0F141E"/>
<path d="M69.6381 25.4352V5.54174H73.7589V25.4352H69.6381Z" fill="#0F141E"/>
<path d="M71.375 31.2327V27.6234C72.2655 27.6803 72.9759 27.7087 73.5064 27.7087C74.0369 27.7087 74.4348 27.6045 74.7 27.3961C74.9653 27.2066 75.1358 26.9982 75.2116 26.7709C75.2874 26.5435 75.3253 26.2309 75.3253 25.833V10.373H79.446V25.6057C79.446 29.4896 77.542 31.4316 73.7338 31.4316C73.0138 31.4316 72.2276 31.3653 71.375 31.2327ZM75.581 4.71758C76.0736 4.22498 76.6704 3.97869 77.3714 3.97869C78.0724 3.97869 78.6693 4.22498 79.1618 4.71758C79.6544 5.21018 79.9007 5.80699 79.9007 6.50799C79.9007 7.209 79.6544 7.79633 79.1618 8.26998C78.6693 8.76258 78.0724 9.00888 77.3714 9.00888C76.6704 9.00888 76.0736 8.77205 75.581 8.2984C75.0884 7.8058 74.8421 7.209 74.8421 6.50799C74.8421 5.80699 75.0884 5.21018 75.581 4.71758Z" fill="#0F141E"/>
<path d="M84.2282 12.476V10.373H87.3544V6.45115L89.7416 5.71226V10.373H94.6297V12.476H89.7416V20.7176C89.7416 21.9301 90.0352 22.688 90.6226 22.9911C91.2099 23.2753 91.7688 23.4174 92.2993 23.4174C92.9624 23.4174 93.7487 23.2848 94.6581 23.0195V25.3499C93.6918 25.5962 92.8108 25.7194 92.0151 25.7194C90.9541 25.7194 89.9121 25.4067 88.889 24.7815C87.8659 24.1563 87.3544 22.8111 87.3544 20.746V12.476H84.2282Z" fill="#FC6536"/>
<path d="M97.3055 12.3908C98.8022 10.8751 100.621 10.1172 102.762 10.1172C104.903 10.1172 106.722 10.8845 108.218 12.4192C109.734 13.9349 110.492 15.7537 110.492 17.8757C110.492 20.0166 109.744 21.8449 108.247 23.3606C106.731 24.8952 104.903 25.6625 102.762 25.6625C100.621 25.6625 98.8022 24.9047 97.3055 23.389C95.8088 21.8544 95.0604 20.0166 95.0604 17.8757C95.0604 15.7348 95.8088 13.9065 97.3055 12.3908ZM97.3339 17.8757C97.3339 19.4293 97.8549 20.746 98.897 21.8259C99.958 22.8869 101.246 23.4174 102.762 23.4174C104.297 23.4174 105.585 22.8774 106.627 21.7975C107.688 20.7176 108.218 19.4103 108.218 17.8757C108.218 16.341 107.688 15.0337 106.627 13.9538C105.566 12.8739 104.278 12.3339 102.762 12.3339C101.246 12.3339 99.958 12.8739 98.897 13.9538C97.8549 15.0337 97.3339 16.341 97.3339 17.8757Z" fill="#FC6536"/>
<path d="M111.748 10.373H114.164V18.7567C114.164 20.1966 114.59 21.3333 115.443 22.167C116.296 23.0006 117.328 23.4174 118.541 23.4174C119.924 23.4174 121.06 22.9153 121.951 21.9112C122.86 20.907 123.315 19.6282 123.315 18.0746V10.373H125.731V25.4352H123.315V22.8206C122.804 23.6542 122.103 24.3458 121.212 24.8952C120.322 25.4257 119.289 25.6909 118.114 25.6909C116.371 25.6909 114.875 25.132 113.624 24.0142C112.374 22.8774 111.748 21.3618 111.748 19.4671V10.373Z" fill="#FC6536"/>
<path d="M127.766 10.373H130.182V13.3286C130.656 12.1918 131.347 11.3866 132.257 10.913C133.166 10.4393 134.113 10.2025 135.099 10.2025C135.496 10.2025 135.913 10.2404 136.349 10.3162V12.8739C135.8 12.7413 135.288 12.675 134.814 12.675C133.753 12.675 132.711 13.0728 131.688 13.8686C130.684 14.6454 130.182 15.9716 130.182 17.8472V25.4352H127.766V10.373Z" fill="#FC6536"/>
<path d="M137.195 14.4938C137.195 13.1297 137.773 12.0592 138.929 11.2824C140.084 10.5056 141.524 10.1172 143.248 10.1172C145.446 10.1172 147.397 10.7046 149.103 11.8792V14.2664C147.037 12.9023 145.086 12.2202 143.248 12.2202C142.244 12.2202 141.401 12.4287 140.719 12.8455C140.037 13.2433 139.696 13.7928 139.696 14.4938C139.696 14.8348 139.781 15.1285 139.952 15.3748C140.141 15.6021 140.454 15.8105 140.889 16C141.325 16.1705 141.742 16.3031 142.14 16.3979C142.538 16.4926 143.116 16.6252 143.873 16.7957C143.949 16.8147 144.006 16.8336 144.044 16.8526C144.101 16.8526 144.158 16.862 144.214 16.881C144.29 16.881 144.357 16.8905 144.413 16.9094C146.251 17.3073 147.577 17.8757 148.392 18.6146C149.226 19.3345 149.643 20.2439 149.643 21.3428C149.643 21.3618 149.643 21.3807 149.643 21.3996C149.643 22.7827 149.074 23.8437 147.937 24.5826C146.801 25.3025 145.408 25.6625 143.76 25.6625C141.448 25.6625 139.317 24.9236 137.365 23.4458V20.8597C138.048 21.5607 138.995 22.1859 140.207 22.7353C141.42 23.2658 142.604 23.5311 143.76 23.5311C144.726 23.5311 145.531 23.3321 146.175 22.9343C146.839 22.5175 147.17 21.9775 147.17 21.3144C147.17 20.1208 145.749 19.2493 142.907 18.6998C140.956 18.3209 139.516 17.8188 138.587 17.1936C137.659 16.5494 137.195 15.6495 137.195 14.4938Z" fill="#FC6536"/>
</svg>
