<svg width="32" height="32" viewBox="0 0 32 32" fill="none" xmlns="http://www.w3.org/2000/svg">
<path d="M5 10.2857C5 9.67951 5.24082 9.09812 5.66947 8.66947C6.09812 8.24082 6.67951 8 7.28571 8H25.5714C26.1776 8 26.759 8.24082 27.1877 8.66947C27.6163 9.09812 27.8571 9.67951 27.8571 10.2857V21.7143C27.8571 22.3205 27.6163 22.9019 27.1877 23.3305C26.759 23.7592 26.1776 24 25.5714 24H7.28571C6.67951 24 6.09812 23.7592 5.66947 23.3305C5.24082 22.9019 5 22.3205 5 21.7143V10.2857Z" stroke="black" stroke-width="1.5" stroke-linecap="round" stroke-linejoin="round"/>
<path d="M13.0006 15.9989C13.0006 16.9082 13.3618 17.7803 14.0048 18.4233C14.6478 19.0662 15.5199 19.4275 16.4292 19.4275C17.3385 19.4275 18.2106 19.0662 18.8535 18.4233C19.4965 17.7803 19.8578 16.9082 19.8578 15.9989C19.8578 15.0896 19.4965 14.2175 18.8535 13.5745C18.2106 12.9315 17.3385 12.5703 16.4292 12.5703C15.5199 12.5703 14.6478 12.9315 14.0048 13.5745C13.3618 14.2175 13.0006 15.0896 13.0006 15.9989Z" stroke="#0F141E" stroke-width="1.5" stroke-linecap="round" stroke-linejoin="round"/>
<path d="M13 15.998H5" stroke="#0F141E" stroke-width="1.5" stroke-linecap="round" stroke-linejoin="round"/>
<path d="M19.8577 15.998H27.8577" stroke="#0F141E" stroke-width="1.5" stroke-linecap="round" stroke-linejoin="round"/>
</svg>
