<svg width="72" height="82" viewBox="0 0 72 82" fill="none" xmlns="http://www.w3.org/2000/svg">
<g filter="url(#filter0_d_163_5974)">
<path d="M52.9708 16.0295C57.377 20.4352 59.8971 26.3818 59.9981 32.6119C60.0991 38.842 57.7732 44.8673 53.5121 49.4135L52.9708 49.9735L41.6561 61.2855C40.2205 62.7202 38.2931 63.5556 36.2646 63.6225C34.236 63.6893 32.2578 62.9826 30.7308 61.6455L30.3468 61.2855L19.0295 49.9708C14.5286 45.4699 12 39.3654 12 33.0001C12 26.6349 14.5286 20.5304 19.0295 16.0295C23.5304 11.5286 29.6349 9 36.0001 9C42.3654 9 48.4699 11.5286 52.9708 16.0295ZM36.0001 25.0001C34.9496 25.0001 33.9093 25.2071 32.9387 25.6091C31.9681 26.0112 31.0862 26.6004 30.3433 27.3433C29.6004 28.0862 29.0112 28.9681 28.6091 29.9387C28.2071 30.9093 28.0001 31.9496 28.0001 33.0001C28.0001 34.0507 28.2071 35.091 28.6091 36.0616C29.0112 37.0322 29.6004 37.9141 30.3433 38.657C31.0862 39.3999 31.9681 39.9891 32.9387 40.3912C33.9093 40.7932 34.9496 41.0001 36.0001 41.0001C38.1219 41.0001 40.1567 40.1573 41.657 38.657C43.1573 37.1567 44.0001 35.1219 44.0001 33.0001C44.0001 30.8784 43.1573 28.8436 41.657 27.3433C40.1567 25.843 38.1219 25.0001 36.0001 25.0001Z" fill="#FC6536"/>
<path d="M54.9501 50.8035L54.9714 50.7812C59.5875 45.8561 62.1073 39.3288 61.9978 32.5795C61.8884 25.8302 59.1584 19.3881 54.385 14.6153C49.5091 9.73929 42.8958 7 36.0001 7C29.1045 7 22.4912 9.73929 17.6153 14.6153C12.7393 19.4912 10 26.1045 10 33.0001C10 39.8958 12.7393 46.5091 17.6153 51.385L17.6154 51.3852L28.9328 62.6999C28.9479 62.715 28.9633 62.7299 28.9789 62.7446L29.3629 63.1046C29.3794 63.12 29.3962 63.1352 29.4132 63.1501C31.322 64.8216 33.7947 65.705 36.3304 65.6214C38.8662 65.5378 41.2753 64.4936 43.0699 62.7001L43.0702 62.6999L54.3849 51.3879L54.4088 51.3635L54.9501 50.8035ZM33.7041 27.4569C34.432 27.1553 35.2122 27.0001 36.0001 27.0001C37.5914 27.0001 39.1176 27.6323 40.2428 28.7575C41.368 29.8827 42.0001 31.4088 42.0001 33.0001C42.0001 34.5914 41.368 36.1176 40.2428 37.2428C39.1176 38.368 37.5914 39.0001 36.0001 39.0001C35.2122 39.0001 34.432 38.845 33.7041 38.5434C32.9761 38.2419 32.3147 37.7999 31.7575 37.2428C31.2004 36.6856 30.7584 36.0242 30.4569 35.2962C30.1553 34.5683 30.0001 33.7881 30.0001 33.0001C30.0001 32.2122 30.1553 31.432 30.4569 30.7041C30.7584 29.9761 31.2004 29.3147 31.7575 28.7575C32.3147 28.2004 32.9761 27.7584 33.7041 27.4569Z" stroke="white" stroke-width="4" stroke-linecap="round" stroke-linejoin="round"/>
</g>
<defs>
<filter id="filter0_d_163_5974" x="1" y="5" width="70.0015" height="76.627" filterUnits="userSpaceOnUse" color-interpolation-filters="sRGB">
<feFlood flood-opacity="0" result="BackgroundImageFix"/>
<feColorMatrix in="SourceAlpha" type="matrix" values="0 0 0 0 0 0 0 0 0 0 0 0 0 0 0 0 0 0 127 0" result="hardAlpha"/>
<feOffset dy="7"/>
<feGaussianBlur stdDeviation="3.5"/>
<feComposite in2="hardAlpha" operator="out"/>
<feColorMatrix type="matrix" values="0 0 0 0 0 0 0 0 0 0 0 0 0 0 0 0 0 0 0.25 0"/>
<feBlend mode="normal" in2="BackgroundImageFix" result="effect1_dropShadow_163_5974"/>
<feBlend mode="normal" in="SourceGraphic" in2="effect1_dropShadow_163_5974" result="shape"/>
</filter>
</defs>
</svg>
