<svg width="24" height="24" viewBox="0 0 24 24" fill="none" xmlns="http://www.w3.org/2000/svg">
<g clip-path="url(#clip0_533_14727)">
<path d="M10 11C10 11.5304 10.2107 12.0391 10.5858 12.4142C10.9609 12.7893 11.4696 13 12 13C12.5304 13 13.0391 12.7893 13.4142 12.4142C13.7893 12.0391 14 11.5304 14 11C14 10.4696 13.7893 9.96086 13.4142 9.58579C13.0391 9.21071 12.5304 9 12 9C11.4696 9 10.9609 9.21071 10.5858 9.58579C10.2107 9.96086 10 10.4696 10 11Z" stroke="#F1F1F1" stroke-width="1.2" stroke-linecap="round" stroke-linejoin="round"/>
<path d="M16.9499 15.8209L13.2372 19.4936C12.9091 19.8179 12.4643 20 12.0004 20C11.5366 20 11.0918 19.8179 10.7636 19.4936L7.05013 15.8209C6.0712 14.8525 5.40455 13.6186 5.13448 12.2754C4.86441 10.9322 5.00306 9.53988 5.53288 8.2746C6.0627 7.00931 6.95991 5.92785 8.11105 5.16698C9.26218 4.40611 10.6155 4 12 4C13.3845 4 14.7378 4.40611 15.889 5.16698C17.0401 5.92785 17.9373 7.00931 18.4671 8.2746C18.9969 9.53988 19.1356 10.9322 18.8655 12.2754C18.5955 13.6186 17.9288 14.8525 16.9499 15.8209Z" stroke="#F1F1F1" stroke-width="1.2" stroke-linecap="round" stroke-linejoin="round"/>
</g>
<defs>
<clipPath id="clip0_533_14727">
<rect width="24" height="24" fill="white"/>
</clipPath>
</defs>
</svg>
