<svg width="32" height="32" viewBox="0 0 32 32" fill="none" xmlns="http://www.w3.org/2000/svg">
<g clip-path="url(#clip0_252_5231)">
<path d="M19.3333 7L26 9.25V14.875H22.6667V23.875C22.6667 24.1734 22.5496 24.4595 22.3412 24.6705C22.1329 24.8815 21.8502 25 21.5556 25H10.4444C10.1498 25 9.86714 24.8815 9.65877 24.6705C9.4504 24.4595 9.33333 24.1734 9.33333 23.875V14.875H6V9.25L12.6667 7C12.6667 7.89511 13.0179 8.75355 13.643 9.38649C14.2681 10.0194 15.1159 10.375 16 10.375C16.8841 10.375 17.7319 10.0194 18.357 9.38649C18.9821 8.75355 19.3333 7.89511 19.3333 7Z" stroke="#0F141E" stroke-width="1.5" stroke-linecap="round" stroke-linejoin="round"/>
</g>
<defs>
<clipPath id="clip0_252_5231">
<rect width="32" height="32" fill="white"/>
</clipPath>
</defs>
</svg>
