<svg width="77" height="20" viewBox="0 0 77 20" fill="none" xmlns="http://www.w3.org/2000/svg">
<g clip-path="url(#clip0_318_2816)">
<path d="M76.3803 19.1603C75.5097 20.1635 74.7052 20.0353 74.1401 18.7982C73.5578 17.5258 72.9745 16.2534 72.4083 14.9736C72.2791 14.683 72.1327 14.5431 71.7844 14.5452C68.5154 14.5601 65.2463 14.5591 61.9773 14.5473C61.6461 14.5463 61.4709 14.6456 61.3363 14.9544C60.7295 16.3517 60.1056 17.7416 59.4699 19.1251C59.2135 19.6827 58.7616 19.9049 58.2146 19.7853C57.7392 19.6806 57.4583 19.3484 57.4476 18.8868C57.4401 18.5856 57.5651 18.264 57.6944 17.9809C59.8481 13.2589 62.0104 8.54124 64.1727 3.82247C64.5786 2.93684 64.9995 2.05761 65.3873 1.1645C65.6843 0.473294 66.117 -0.00424483 66.93 2.84488e-05C67.7195 0.00430172 68.1222 0.474362 68.4278 1.14313C71.0259 6.83086 73.639 12.5111 76.2489 18.1935C76.2842 18.2715 76.3365 18.3409 76.3814 18.4146V19.1603H76.3803ZM66.867 2.61527C65.3489 5.98689 63.8885 9.2303 62.4174 12.4972H71.3197C69.8337 9.19932 68.3776 5.96766 66.867 2.61527Z" fill="#6F7785"/>
<path d="M37.3077 11.0553H22.9271C22.9271 11.27 22.9271 11.4591 22.9271 11.6493C22.9271 13.8864 22.9271 16.1223 22.9271 18.3594C22.9271 18.5367 22.9378 18.7162 22.9132 18.8914C22.8448 19.3882 22.426 19.7653 21.9378 19.7899C21.4624 19.8134 21.0298 19.5153 20.9005 19.0421C20.846 18.8401 20.8364 18.6222 20.8364 18.4118C20.8332 12.7668 20.8332 7.12176 20.8364 1.47676C20.8364 1.30049 20.8375 1.11887 20.8748 0.947943C20.9881 0.42874 21.4603 0.0719211 21.9571 0.112517C22.4645 0.153113 22.8758 0.561211 22.9207 1.08682C22.9399 1.31651 22.9292 1.54834 22.9292 1.77909C22.9292 4.13901 22.9292 6.49786 22.9292 8.90051H37.2629C37.1486 8.70287 37.061 8.53728 36.9616 8.37917C35.576 6.19018 34.1872 4.00333 32.8026 1.81328C32.4789 1.30156 32.4992 0.811198 32.856 0.445833C33.2075 0.0858093 33.6349 0.0110269 34.0729 0.240716C34.2652 0.341137 34.435 0.529162 34.5536 0.716117C36.3762 3.57387 38.187 6.4391 40.0042 9.30006C40.315 9.78935 40.3118 10.284 40.0095 10.753C38.1731 13.6022 36.3302 16.4471 34.4778 19.2846C34.1188 19.8348 33.4853 19.9512 32.9928 19.6125C32.5056 19.2771 32.3999 18.6746 32.7663 18.1051C34.1594 15.9418 35.5632 13.7849 36.9627 11.6247C37.0663 11.4645 37.1624 11.3 37.3099 11.0574L37.3077 11.0553Z" fill="#6F7785"/>
<path d="M45.8632 12.8343C45.8632 14.5928 45.8632 16.2754 45.8632 17.958C45.8632 18.2069 45.8707 18.4548 45.8611 18.7037C45.8387 19.318 45.4252 19.7624 44.8505 19.8019C44.265 19.8414 43.7896 19.4718 43.6753 18.8735C43.6454 18.7186 43.6497 18.5552 43.6497 18.396C43.6486 12.8226 43.6475 7.24915 43.6497 1.67573C43.6497 0.629848 44.0567 0.213204 45.093 0.222819C47.4913 0.246322 49.8908 0.227092 52.286 0.330719C53.7271 0.392681 55.0657 0.906543 56.1981 1.83812C59.2642 4.36255 58.8775 9.44455 55.461 11.5684C53.9162 12.5288 52.1973 12.8194 50.4143 12.8322C48.9229 12.8429 47.4315 12.8343 45.8632 12.8343ZM45.8921 10.9071C48.0907 10.8141 50.253 10.7864 52.4013 10.6037C53.4152 10.5171 54.3254 9.97871 55.0166 9.18815C56.0999 7.9489 56.2708 6.50774 55.7655 5.00141C55.2409 3.43953 53.9846 2.62226 52.4441 2.45881C50.6514 2.26758 48.831 2.32527 47.0224 2.27826C46.6549 2.26865 46.2863 2.2772 45.8921 2.2772V10.9081V10.9071Z" fill="#6F7785"/>
<path d="M13.9962 6.89199C13.9962 5.11751 13.9941 3.34197 13.9983 1.56749C13.9983 1.35703 14.0058 1.13909 14.0581 0.936112C14.2024 0.374177 14.7023 0.0365879 15.2536 0.101755C15.7696 0.16265 16.1681 0.601729 16.2065 1.15298C16.2119 1.22349 16.2108 1.29507 16.2108 1.36558C16.2087 4.87928 16.2172 8.39405 16.1991 11.9077C16.1927 13.2132 15.9395 14.4824 15.4032 15.68C14.2707 18.2098 12.2367 19.5056 9.55519 19.8924C8.16637 20.0932 6.78717 20.0174 5.43575 19.6467C2.46369 18.8315 0.462724 16.4342 0.116589 13.2795C0.0460801 12.6289 0.00868897 11.9708 0.00655233 11.3159C-0.00413086 8.01586 0.00121074 4.71476 0.00227906 1.41365C0.00227906 0.606002 0.40824 0.108165 1.06739 0.0985504C1.75432 0.0878672 2.20836 0.598524 2.20943 1.41365C2.2137 4.6795 2.1934 7.94535 2.22331 11.2101C2.23079 12.0552 2.29062 12.9216 2.49146 13.7378C3.17625 16.5325 5.42507 18.0976 8.40461 17.9384C11.8414 17.7557 13.8947 15.6682 13.977 12.2154C14.0186 10.442 13.9844 8.66647 13.9844 6.89092C13.9887 6.89092 13.993 6.89092 13.9973 6.89092L13.9962 6.89199Z" fill="#6F7785"/>
</g>
<defs>
<clipPath id="clip0_318_2816">
<rect width="76.3805" height="20" fill="white"/>
</clipPath>
</defs>
</svg>
