<svg width="24" height="24" viewBox="0 0 24 24" fill="none" xmlns="http://www.w3.org/2000/svg">
<g clip-path="url(#clip0_533_14742)">
<path d="M5.77783 7.55556C5.77783 8.49855 6.15243 9.40292 6.81923 10.0697C7.48603 10.7365 8.3904 11.1111 9.33339 11.1111C10.2764 11.1111 11.1807 10.7365 11.8475 10.0697C12.5143 9.40292 12.8889 8.49855 12.8889 7.55556C12.8889 6.61256 12.5143 5.70819 11.8475 5.0414C11.1807 4.3746 10.2764 4 9.33339 4C8.3904 4 7.48603 4.3746 6.81923 5.0414C6.15243 5.70819 5.77783 6.61256 5.77783 7.55556Z" stroke="#F1F1F1" stroke-width="1.2" stroke-linecap="round" stroke-linejoin="round"/>
<path d="M4 20.0001V18.2223C4 17.2793 4.3746 16.3749 5.0414 15.7081C5.70819 15.0414 6.61256 14.6667 7.55556 14.6667H11.1111C12.0541 14.6667 12.9585 15.0414 13.6253 15.7081C14.2921 16.3749 14.6667 17.2793 14.6667 18.2223V20.0001" stroke="#F1F1F1" stroke-width="1.2" stroke-linecap="round" stroke-linejoin="round"/>
<path d="M15.5557 4.11548C16.3205 4.3113 16.9984 4.7561 17.4825 5.37975C17.9665 6.00341 18.2293 6.77044 18.2293 7.55992C18.2293 8.34941 17.9665 9.11644 17.4825 9.74009C16.9984 10.3637 16.3205 10.8085 15.5557 11.0044" stroke="#F1F1F1" stroke-width="1.2" stroke-linecap="round" stroke-linejoin="round"/>
<path d="M20.0002 19.9998V18.222C19.9957 17.4373 19.7316 16.6761 19.2493 16.0571C18.7669 15.438 18.0933 14.996 17.3335 14.7998" stroke="#F1F1F1" stroke-width="1.2" stroke-linecap="round" stroke-linejoin="round"/>
</g>
<defs>
<clipPath id="clip0_533_14742">
<rect width="24" height="24" fill="white"/>
</clipPath>
</defs>
</svg>
