<svg width="16" height="16" viewBox="0 0 16 16" fill="none" xmlns="http://www.w3.org/2000/svg">
<g clip-path="url(#clip0_303_5301)">
<path d="M13.25 4.18038C13.7167 4.44571 14.0033 4.94238 14 5.47904V10.335C14 10.8744 13.7047 11.3717 13.228 11.6337L8.728 14.4804C8.5049 14.6029 8.25451 14.6671 8 14.6671C7.74549 14.6671 7.4951 14.6029 7.272 14.4804L2.772 11.6337C2.53878 11.5063 2.34408 11.3185 2.20827 11.09C2.07247 10.8616 2.00053 10.6008 2 10.335V5.47838C2 4.93904 2.29533 4.44238 2.772 4.18038L7.272 1.52704C7.50169 1.4004 7.75971 1.33398 8.022 1.33398C8.28429 1.33398 8.54231 1.4004 8.772 1.52704L13.272 4.18038H13.25Z" stroke="#FC6536" stroke-width="1.5" stroke-linecap="round" stroke-linejoin="round"/>
<path d="M8 5.33398V8.00065" stroke="#FC6536" stroke-width="1.5" stroke-linecap="round" stroke-linejoin="round"/>
<path d="M8 10.666H8.00667" stroke="#FC6536" stroke-width="1.5" stroke-linecap="round" stroke-linejoin="round"/>
</g>
<defs>
<clipPath id="clip0_303_5301">
<rect width="16" height="16" fill="white"/>
</clipPath>
</defs>
</svg>
