<svg width="24" height="24" viewBox="0 0 24 24" fill="none" xmlns="http://www.w3.org/2000/svg">
<g clip-path="url(#clip0_89_3201)">
<path fill-rule="evenodd" clip-rule="evenodd" d="M6.84372 3.99609H17.9521C20.406 3.99609 22.3954 6.04228 22.3954 8.56638V15.4218C22.3954 17.9459 20.406 19.9921 17.9521 19.9921H6.84372C4.38974 19.9921 2.40039 17.9459 2.40039 15.4218V8.56638C2.40039 6.04228 4.38974 3.99609 6.84372 3.99609ZM11.0732 8.54648C10.7726 8.35583 10.3982 8.35083 10.0932 8.53341C9.78816 8.71599 9.59961 9.05791 9.59961 9.42847V14.5713C9.59961 14.9419 9.78816 15.2838 10.0932 15.4664C10.3982 15.649 10.7726 15.644 11.0732 15.4533L15.1272 12.8819C15.4203 12.696 15.5996 12.3612 15.5996 11.9999C15.5996 11.6386 15.4203 11.3038 15.1272 11.1179L11.0732 8.54648Z" fill="#F1F1F1"/>
</g>
<defs>
<clipPath id="clip0_89_3201">
<rect width="24" height="24" fill="white"/>
</clipPath>
</defs>
</svg>
